<svg width="64" height="64" viewBox="0 0 64 64" fill="none" xmlns="http://www.w3.org/2000/svg">
<path d="M57 10.75H7C5.87364 10.7526 4.79417 11.2013 3.99771 11.9977C3.20126 12.7942 2.75264 13.8736 2.75 15V49C2.75264 50.1264 3.20126 51.2058 3.99771 52.0023C4.79417 52.7987 5.87364 53.2474 7 53.25H57C58.1264 53.2474 59.2058 52.7987 60.0023 52.0023C60.7987 51.2058 61.2474 50.1264 61.25 49V15C61.2474 13.8736 60.7987 12.7942 60.0023 11.9977C59.2058 11.2013 58.1264 10.7526 57 10.75ZM58.75 49C58.7474 49.4633 58.5622 49.9069 58.2345 50.2345C57.9069 50.5622 57.4633 50.7474 57 50.75H7C6.53668 50.7474 6.09309 50.5622 5.76546 50.2345C5.43784 49.9069 5.25263 49.4633 5.25 49V15C5.25263 14.5367 5.43784 14.0931 5.76546 13.7655C6.09309 13.4378 6.53668 13.2526 7 13.25H57C57.4633 13.2526 57.9069 13.4378 58.2345 13.7655C58.5622 14.0931 58.7474 14.5367 58.75 15V49Z" fill="#ffffff" id="id_108"></path>
<path d="M24.34 31.6301C25.3905 30.7342 26.141 29.5378 26.4903 28.2021C26.8396 26.8664 26.771 25.4557 26.2936 24.1602C25.8162 22.8647 24.9531 21.7468 23.8205 20.9571C22.688 20.1675 21.3406 19.7441 19.96 19.7441C18.5793 19.7441 17.2319 20.1675 16.0994 20.9571C14.9668 21.7468 14.1037 22.8647 13.6263 24.1602C13.1489 25.4557 13.0803 26.8664 13.4296 28.2021C13.7789 29.5378 14.5295 30.7342 15.58 31.6301C13.5066 32.5018 11.7364 33.9659 10.4913 35.839C9.24612 37.7121 8.58126 39.9109 8.57996 42.1601C8.57996 42.4916 8.71165 42.8096 8.94607 43.044C9.18049 43.2784 9.49844 43.4101 9.82996 43.4101C10.1615 43.4101 10.4794 43.2784 10.7138 43.044C10.9483 42.8096 11.08 42.4916 11.08 42.1601C11.08 39.797 12.0187 37.5307 13.6896 35.8598C15.3606 34.1888 17.6269 33.2501 19.99 33.2501C22.353 33.2501 24.6193 34.1888 26.2903 35.8598C27.9612 37.5307 28.9 39.797 28.9 42.1601C28.9 42.4916 29.0317 42.8096 29.2661 43.044C29.5005 43.2784 29.8184 43.4101 30.15 43.4101C30.4815 43.4101 30.7994 43.2784 31.0338 43.044C31.2683 42.8096 31.4 42.4916 31.4 42.1601C31.3937 39.9041 30.72 37.7004 29.4637 35.8266C28.2073 33.9528 26.4246 32.4926 24.34 31.6301V31.6301ZM15.71 26.5001C15.71 25.6612 15.9583 24.8412 16.4235 24.1431C16.8888 23.4451 17.5502 22.9004 18.3244 22.5776C19.0987 22.2548 19.9512 22.1683 20.7745 22.3291C21.5978 22.4898 22.3551 22.8907 22.9511 23.481C23.547 24.0714 23.9549 24.825 24.1234 25.6467C24.2918 26.4685 24.2134 27.3217 23.8978 28.099C23.5823 28.8762 23.0438 29.5427 22.3501 30.0145C21.6565 30.4863 20.8388 30.7422 20 30.7501C19.4388 30.7541 18.8825 30.6471 18.3628 30.4354C17.8432 30.2237 17.3704 29.9115 16.9718 29.5166C16.5732 29.1216 16.2565 28.6519 16.04 28.1342C15.8234 27.6166 15.7113 27.0612 15.71 26.5001V26.5001Z" fill="#ffffff" id="id_109"></path>
<path d="M35.71 21.21H40.54C40.8715 21.21 41.1894 21.0783 41.4238 20.8438C41.6583 20.6094 41.79 20.2915 41.79 19.96C41.79 19.6284 41.6583 19.3105 41.4238 19.0761C41.1894 18.8417 40.8715 18.71 40.54 18.71H35.71C35.3784 18.71 35.0605 18.8417 34.8261 19.0761C34.5917 19.3105 34.46 19.6284 34.46 19.96C34.46 20.2915 34.5917 20.6094 34.8261 20.8438C35.0605 21.0783 35.3784 21.21 35.71 21.21V21.21Z" fill="#ffffff" id="id_110"></path>
<path d="M53.18 25.6101H35.71C35.3784 25.6101 35.0605 25.7418 34.8261 25.9762C34.5917 26.2106 34.46 26.5286 34.46 26.8601C34.46 27.1916 34.5917 27.5096 34.8261 27.744C35.0605 27.9784 35.3784 28.1101 35.71 28.1101H53.18C53.5115 28.1101 53.8294 27.9784 54.0638 27.744C54.2983 27.5096 54.43 27.1916 54.43 26.8601C54.43 26.5286 54.2983 26.2106 54.0638 25.9762C53.8294 25.7418 53.5115 25.6101 53.18 25.6101V25.6101Z" fill="#ffffff" id="id_111"></path>
<path d="M53.18 32.5H35.71C35.3784 32.5 35.0605 32.6317 34.8261 32.8661C34.5917 33.1005 34.46 33.4185 34.46 33.75C34.46 34.0815 34.5917 34.3995 34.8261 34.6339C35.0605 34.8683 35.3784 35 35.71 35H53.18C53.5115 35 53.8294 34.8683 54.0638 34.6339C54.2983 34.3995 54.43 34.0815 54.43 33.75C54.43 33.4185 54.2983 33.1005 54.0638 32.8661C53.8294 32.6317 53.5115 32.5 53.18 32.5V32.5Z" fill="#ffffff" id="id_112"></path>
<path d="M53.18 39.3899H35.71C35.3784 39.3899 35.0605 39.5216 34.8261 39.756C34.5917 39.9904 34.46 40.3084 34.46 40.6399C34.46 40.9714 34.5917 41.2894 34.8261 41.5238C35.0605 41.7582 35.3784 41.8899 35.71 41.8899H53.18C53.5115 41.8899 53.8294 41.7582 54.0638 41.5238C54.2983 41.2894 54.43 40.9714 54.43 40.6399C54.43 40.3084 54.2983 39.9904 54.0638 39.756C53.8294 39.5216 53.5115 39.3899 53.18 39.3899V39.3899Z" fill="#ffffff" id="id_113"></path>
<path d="M53.1799 46.29H48.5699C48.2384 46.29 47.9205 46.4217 47.6861 46.6562C47.4516 46.8906 47.3199 47.2085 47.3199 47.54C47.3199 47.8716 47.4516 48.1895 47.6861 48.4239C47.9205 48.6583 48.2384 48.79 48.5699 48.79H53.1799C53.5115 48.79 53.8294 48.6583 54.0638 48.4239C54.2983 48.1895 54.4299 47.8716 54.4299 47.54C54.4299 47.2085 54.2983 46.8906 54.0638 46.6562C53.8294 46.4217 53.5115 46.29 53.1799 46.29V46.29Z" fill="#ffffff" id="id_114"></path>
</svg>