<svg xmlns="http://www.w3.org/2000/svg" viewBox="0 0 64 64"><defs><style>.cls-1{fill:#231f20;}</style></defs><title>shopping icon 64px</title><g id="Layer_2" data-name="Layer 2"><circle class="cls-1" cx="44.96" cy="27.15" r="5.74" id="id_101" style="fill: rgb(255, 255, 255);"></circle><path class="cls-1" d="M54.23,39.22c0-.29-.07-.59-.1-.89a5.5,5.5,0,0,0-5.48-5H47.54a7.12,7.12,0,0,1-2.58.47,7.23,7.23,0,0,1-2.29-.37,6.87,6.87,0,0,1,1.14,3.3,10.64,10.64,0,0,0,.13,1.15l1,5.57a19.69,19.69,0,0,1-4.85,3.06A15.45,15.45,0,0,0,55,43.54Z" id="id_102" style="fill: rgb(255, 255, 255);"></path><circle class="cls-1" cx="19.04" cy="27.15" r="5.74" id="id_103" style="fill: rgb(255, 255, 255);"></circle><path class="cls-1" d="M20.06,37.83a10.64,10.64,0,0,0,.13-1.15,6.87,6.87,0,0,1,1.14-3.3,7.23,7.23,0,0,1-2.29.37,7.12,7.12,0,0,1-2.58-.47H15.35a5.5,5.5,0,0,0-5.48,5c0,.3,0,.6-.1.89L9,43.54a15.45,15.45,0,0,0,14.92,2.92,19.69,19.69,0,0,1-4.85-3.06Z" id="id_104" style="fill: rgb(255, 255, 255);"></path><circle class="cls-1" cx="32" cy="23.32" r="6.94" id="id_105" style="fill: rgb(255, 255, 255);"></circle><path class="cls-1" d="M43.2,37.91a9.4,9.4,0,0,1-.11-1.08,6.66,6.66,0,0,0-6.63-6.1H35.11a8.63,8.63,0,0,1-6.22,0H27.54a6.66,6.66,0,0,0-6.63,6.1,9.4,9.4,0,0,1-.11,1.08l-.94,5.23a18.69,18.69,0,0,0,24.28,0Z" id="id_106" style="fill: rgb(255, 255, 255);"></path></g></svg>